<svg xmlns="http://www.w3.org/2000/svg" viewBox="0 0 64 80" x="0px" y="0px">
    <path fill="#1a3d60"
        d="M 44.0225 37.1724 A 16.3487 16.3487 0 0 0 47.546 26.564 V 9.02 A 5.0954 5.0954 0 0 0 37.868 6.8986 A 2.45 2.4 0 0 0 33.1484 7.3486 A 3.6201 3.6201 0 0 0 27.0714 8.8286 A 3.6084 3.6084 0 0 0 21.835 10.9577 A 3.5756 3.5756 0 0 0 20.0566 10.4712 A 3.6222 3.6222 0 0 0 16.4385 14.0894 C 16.4385 17.3877 16.5137 20.7373 16.6611 24.0444 C 16.72 25.625 16.786 26.905 16.9424 29.0562 A 1.0002 1.0002 0 1 0 16.9424 29.0562 C 17.2432 33.6069 17.7129 38.3384 18.3389 43.1211 L 19.2891 50.3301 A 11.1181 11.1181 0 0 0 41.4306 48.8798 C 41.328 47.19 41.124 40.121 44.032 37.141 Z M 45.5605 26.7203 A 14.3511 14.3511 0 0 1 42.4502 35.9375 C 39.353 39.746 39.473 44.476 39.431 48.875 A 0.9997 0.9997 0 0 0 39.4307 48.8799 A 9.1184 9.1184 0 0 1 21.2715 50.0693 L 20.3213 42.8603 C 19.7022 38.1211 19.2363 33.4326 18.9385 28.9243 C 18.794 27.192 18.706 25.846 18.6592 23.9556 A 1.0006 1.0006 0 0 0 18.6592 23.9556 C 18.5127 20.6777 18.4385 17.3579 18.4385 14.0894 A 1.6188 1.6188 0 0 1 21.6758 14.0894 V 18.0913 A 1.0002 1.0002 0 0 0 23.6758 18.0912 C 23.6931 16.6382 23.6633 13.3794 23.6758 11.9609 A 1.6183 1.6183 0 0 1 26.9121 11.961 V 16.665 A 1 1 0 1 0 28.9121 16.665 V 9.832 A 1.6182 1.6182 0 0 1 32.1484 9.832 V 14.7495 A 1 1 0 0 0 34.1484 14.7495 V 8.832 A 1.6182 1.6182 0 0 1 37.3847 8.832 V 16.1758 A 1.0001 1.0001 0 0 0 39.3847 16.1758 V 9.02 A 3.0294 3.0294 0 1 1 45.5605 9.02 V 17.21 L 45.5605 26.7203 Z" />

    <path
        fill="#89c1ff"
     d="M 45.5605 25.7173 V 26.7203 A 14.3511 14.3511 0 0 1 42.4502 35.9375 C 39.353 39.746 39.473 44.476 39.431 48.875 A 0.9997 0.9997 0 0 0 39.4307 48.8799 A 9.1184 9.1184 0 0 1 21.2715 50.0693 L 20.3213 42.8603 C 19.7022 38.1211 19.2363 33.4326 18.9385 28.9243 C 18.794 27.192 18.706 25.846 18.6592 23.9556 A 1.0006 1.0006 0 0 0 18.6592 23.9556 C 18.5127 20.6777 18.4385 17.3579 18.4385 14.0894 A 1.6188 1.6188 0 0 1 21.6758 14.0894 V 18.0913 A 1.0002 1.0002 0 0 0 23.6758 18.0912 C 23.6931 16.6382 23.6633 13.3794 23.6758 11.9609 A 1.6183 1.6183 0 0 1 26.9121 11.961 V 16.665 A 1 1 0 1 0 28.9121 16.665 V 9.832 A 1.6182 1.6182 0 0 1 32.1484 9.832 V 14.7495 A 1 1 0 0 0 34.1484 14.7495 V 8.832 A 1.6182 1.6182 0 0 1 37.3847 8.832 V 16.1758 A 1.0001 1.0001 0 0 0 39.3847 16.1758 V 9.02 A 3.0294 3.0294 0 1 1 45.5605 9.02 V 17.21 L 45.5605 25.7173 Z" />

    <polyline fill="#ff6f61" points="28,25 28,30 23,30 23,35 28,35 28,40 33,40 33,35 38,35 38,30 33,30 33,25 28,25" />

</svg>
