<svg xmlns="http://www.w3.org/2000/svg" viewBox="0 0 60 60" x="0px" y="0px">
<!-- <rect x="0" y="0" height="60" width="60" fill="white" /> -->
    <g transform="translate(14.45, 2)">
        <path fill="#1a3d60"
            d="M 27.5975 33.1724 A 16.3487 16.3487 0 0 0 31.121 22.564 V 5.02 A 5.0954 5.0954 0 0 0 21.443 2.8986 A 2.45 2.4 0 0 0 16.7234 3.3486 A 3.6201 3.6201 0 0 0 10.6464 4.8286 A 3.6084 3.6084 0 0 0 5.41 6.9577 A 3.5756 3.5756 0 0 0 3.6316 6.4712 A 3.6222 3.6222 0 0 0 0.0135 10.0894 C 0.0135 13.3877 0.0887 16.7373 0.2361 20.0444 C 0.295 21.625 0.361 22.905 0.5174 25.0562 A 1.0002 1.0002 0 1 0 0.5174 25.0562 C 0.8182 29.6069 1.2879 34.3384 1.9139 39.1211 L 2.8641 46.3301 A 11.1181 11.1181 0 0 0 25.0056 44.8798 C 24.903 43.19 24.699 36.121 27.607 33.141 Z M 29.1355 22.7203 A 14.3511 14.3511 0 0 1 26.0252 31.9375 C 22.928 35.746 23.048 40.476 23.006 44.875 A 0.9997 0.9997 0 0 0 23.0057 44.8799 A 9.1184 9.1184 0 0 1 4.8465 46.0693 L 3.8963 38.8603 C 3.2772 34.1211 2.8113 29.4326 2.5135 24.9243 C 2.369 23.192 2.281 21.846 2.2342 19.9556 A 1.0006 1.0006 0 0 0 2.2342 19.9556 C 2.0877 16.6777 2.0135 13.3579 2.0135 10.0894 A 1.6188 1.6188 0 0 1 5.2508 10.0894 V 14.0913 A 1.0002 1.0002 0 0 0 7.2508 14.0912 C 7.2681 12.6382 7.2383 9.3794 7.2508 7.9609 A 1.6183 1.6183 0 0 1 10.4871 7.961 V 12.665 A 1 1 0 1 0 12.4871 12.665 V 5.832 A 1.6182 1.6182 0 0 1 15.7234 5.832 V 10.7495 A 1 1 0 0 0 17.7234 10.7495 V 4.832 A 1.6182 1.6182 0 0 1 20.9597 4.832 V 12.1758 A 1.0001 1.0001 0 0 0 22.9597 12.1758 V 5.02 A 3.0294 3.0294 0 1 1 29.1355 5.02 V 13.21 L 29.1355 22.7203 Z" />
        <path fill="#89c1ff"
            d="M 29.1355 21.7173 V 22.7203 A 14.3511 14.3511 0 0 1 26.0252 31.9375 C 22.928 35.746 23.048 40.476 23.006 44.875 A 0.9997 0.9997 0 0 0 23.0057 44.8799 A 9.1184 9.1184 0 0 1 4.8465 46.0693 L 3.8963 38.8603 C 3.2772 34.1211 2.8113 29.4326 2.5135 24.9243 C 2.369 23.192 2.281 21.846 2.2342 19.9556 A 1.0006 1.0006 0 0 0 2.2342 19.9556 C 2.0877 16.6777 2.0135 13.3579 2.0135 10.0894 A 1.6188 1.6188 0 0 1 5.2508 10.0894 V 14.0913 A 1.0002 1.0002 0 0 0 7.2508 14.0912 C 7.2681 12.6382 7.2383 9.3794 7.2508 7.9609 A 1.6183 1.6183 0 0 1 10.4871 7.961 V 12.665 A 1 1 0 1 0 12.4871 12.665 V 5.832 A 1.6182 1.6182 0 0 1 15.7234 5.832 V 10.7495 A 1 1 0 0 0 17.7234 10.7495 V 4.832 A 1.6182 1.6182 0 0 1 20.9597 4.832 V 12.1758 A 1.0001 1.0001 0 0 0 22.9597 12.1758 V 5.02 A 3.0294 3.0294 0 1 1 29.1355 5.02 V 13.21 L 29.1355 21.7173 Z" />
        <polyline fill="#ff6f61"
            points="11.575,21 11.575,26 6.575,26 6.575,31 11.575,31 11.575,36 16.575,36 16.575,31 21.575,31 21.575,26 16.575,26 16.575,21 11.575,21" />
    </g>
</svg>